<?xml version="1.0" encoding="utf-8"?>
<!-- Generator: Adobe Illustrator 25.3.0, SVG Export Plug-In . SVG Version: 6.00 Build 0)  -->
<svg version="1.1" id="Capa_1" xmlns="http://www.w3.org/2000/svg" xmlns:xlink="http://www.w3.org/1999/xlink" x="0px" y="0px"
	 viewBox="0 0 482.8 466.2" style="enable-background:new 0 0 482.8 466.2;" xml:space="preserve">
<style type="text/css">
	.st0{fill:#6698BC;}
	.st1{fill:#70C3F0;}
	.st2{fill:#1A3156;}
	.st3{fill:#EC7D48;}
	.st4{fill:#EAEAEA;}
	.st5{fill:#F7AC7A;}
	.st6{fill:#F7F7F7;}
	.st7{opacity:0.28;enable-background:new    ;}
	.st8{fill:#FFE6D3;}
	.st9{fill:#F9DDC2;}
	.st10{fill:#9AD0F2;}
	.st11{enable-background:new    ;}
</style>
<g id="Group_58" transform="translate(-15226.741 -856.32)">
	<g id="Path_50">
		<path class="st0" d="M15614.4,1151.1h-383.6l41.7-74h300.2L15614.4,1151.1z"/>
	</g>
	<g id="Path_52">
		<path class="st1" d="M15230.7,1151.1h383.6v167.4h-383.6V1151.1z"/>
		<path class="st2" d="M15618.2,1322.5h-391.5v-175.3h391.5V1322.5z M15234.6,1314.6h375.8V1155h-375.8V1314.6z"/>
	</g>
	<g id="Group_46" transform="translate(15247.176 1771)">
		<g id="Path_51">
			<path class="st2" d="M-16.3-617.9c-0.7,0-1.3-0.2-1.9-0.5c-1.9-1.1-2.5-3.5-1.5-5.3l42.8-76H59c2.2,0,3.9,1.8,3.9,3.9
				c0,2.2-1.8,3.9-3.9,3.9H27.7l-40.6,72C-13.6-618.6-15-617.9-16.3-617.9z"/>
		</g>
		<g id="Path_53">
			<path class="st2" d="M367.3-617.9c-1.4,0-2.7-0.7-3.4-2l-40.6-72h-27.4c-2.2,0-3.9-1.8-3.9-3.9s1.8-3.9,3.9-3.9h32l42.8,76
				c1.1,1.9,0.4,4.3-1.5,5.3C368.6-618,367.9-617.9,367.3-617.9z"/>
		</g>
	</g>
	<g id="Rectangle_9">
		<path class="st2" d="M15326.1,1103.5h193c5,0,9.1,4.1,9.1,9.1l0,0c0,5-4.1,9.1-9.1,9.1h-193c-5,0-9.1-4.1-9.1-9.1l0,0
			C15317,1107.6,15321.1,1103.5,15326.1,1103.5z"/>
	</g>
	<g id="Path_43">
		<path class="st3" d="M15559.4,1032.6l-46.8,32.3c0,0,16.8,9.8,25,8.7c9.2-1.3,12.9-10.3,9.8-14.8c-1.8-2.6-3.7-5-5.7-7.4
			c8.1,4.3,20.6,7.3,26,4.5c3.3-1.7,7.8-5.7,5.2-12.9C15571.1,1038.1,15559.4,1032.6,15559.4,1032.6z"/>
		<path class="st2" d="M15536.3,1076.5c-9.1,0-23.4-8.2-25.1-9.1l-3.9-2.3l51.9-35.8l1.5,0.7c2.1,1,12.9,6.3,15,12.1
			c1.8,5,0.6,8.7-0.6,10.9c-1.6,2.9-4.2,4.6-6,5.5c-4.6,2.3-12,1.5-18.7-0.5c1.5,2.7,1.5,6.2,0,9.5c-2.1,4.8-6.7,8.1-12.3,8.9
			C15537.5,1076.5,15536.9,1076.5,15536.3,1076.5z M15518.1,1064.6c5.8,2.9,14.5,6.8,19.1,6.1c3.6-0.5,6.5-2.5,7.8-5.5
			c0.8-1.8,0.8-3.6,0-4.8l0,0c-1.7-2.5-3.5-4.8-5.5-7.1l3.5-4.4c8.2,4.4,19.4,6.5,23.3,4.5c2.8-1.4,5.7-4.2,3.8-9.4
			c-0.8-2.3-6.3-5.9-10.5-8.1L15518.1,1064.6z"/>
	</g>
	<g id="Path_39">
		<path class="st3" d="M15544.3,979.9l-17-0.9c0,0-12.1,7.9-20.6,8.5c0,0-7.9,28.3-18.5,27.7l7.9,11
			C15496.1,1026.3,15541,1001,15544.3,979.9z"/>
	</g>
	<g id="Group_33" transform="translate(15692 1477)">
		<g id="Path_24">
			<path class="st4" d="M-179.2-432.4v69.6H-345v-115.7h165.8V-432.4"/>
			<path class="st2" d="M-175.3-358.9h-173.6v-123.5h173.6V-358.9z M-341.1-366.7h157.9v-107.8h-157.9V-366.7z"/>
		</g>
	</g>
	<g id="Group_35" transform="translate(15945.242 1325.717) rotate(-30)">
		<g id="Group_34">
			<g id="Path_25">
				<path class="st5" d="M-45.3-540.4l-26.6,0.6l-93.1-41.4c-9.5-4.2-20.5-3-28.8,3.2l-65.4,49.6l41.9,24.2c2.6-2.1,5-4.4,7.2-6.9
					c7,3.7,20.2,3.2,20.2,3.2l12.9,9.1c-12.5,15.7-59.7,14.2-59.7,14.2c-17.8,2.7-31.6,10.8-31.6,10.8s-10.5,6.3-9,19.3
					c0.1,0.9,0.3,1.9,0.5,2.8l0.1,0.3c1,3.5,3.2,6.5,6.3,8.3c2.5,2.1,5.1,2.7,8,2.8c1.9,0.3,3.7,0.4,5.6,0.3
					c8.4-0.2,50.8-4.2,60.6-3.8c1.7,0.1,4.8,0.4,8.8,1c15.5,2.7,44.6,8.2,58.3,9.1c2.4,0.3,4.2,0.5,5.3,0.5
					c10.7,0.3,54.4-14.8,54.4-14.8l26.3-0.6"/>
				<path class="st2" d="M-270.7-438.6c-0.6-0.4-1.3-0.8-1.9-1.3c-3.8-2.4-6.6-6.1-7.8-10.5l-0.1-0.3c-0.3-1.1-0.5-2.2-0.7-3.4
					c-1.7-15.4,10.4-22.8,10.9-23.1l0.1,0c0.6-0.3,14.7-8.5,33-11.2l0.4-0.1l0.4,0c11.4,0.3,41.2-0.9,53.4-9.9l-7.9-5.6
					c-3.3,0-11.6-0.2-18-2.5c-1.8,1.9-3.7,3.6-5.7,5.3l-2.1,1.7l-49.3-28.5l70.1-53.2c9.4-7,22-8.4,32.7-3.6l92.3,41.1l25.7-0.6
					c2.2-0.1,4,1.7,4,3.8c0.1,2.2-1.7,4-3.8,4l-27.5,0.6l-93.9-41.8c-8.2-3.6-17.7-2.6-24.8,2.7l-60.7,46.1l34.4,19.8
					c1.7-1.5,3.3-3.1,4.8-4.8l2-2.3l2.7,1.4c5,2.6,14.8,2.9,18.2,2.8l1.3,0l1.1,0.8l16.3,11.5l-2.6,3.3
					c-5.8,7.3-18.3,12.2-37.1,14.4c-12.3,1.5-23.2,1.3-25.4,1.3c-16.2,2.5-29,9.7-29.8,10.2c-0.6,0.4-8.3,5.5-7.1,15.5
					c0.1,0.7,0.2,1.4,0.4,2.1l0.1,0.3c0.7,2.5,2.3,4.7,4.6,6l0.2,0.1l0.2,0.2c1.6,1.3,3.1,1.8,5.7,1.9l0.2,0l0.2,0
					c1.6,0.2,3.3,0.3,4.9,0.3c3.1-0.1,11.1-0.7,20.5-1.4c16-1.2,34.1-2.6,40.3-2.4c1.7,0.1,4.6,0.4,9.2,1l0.1,0
					c2.6,0.4,5.5,1,8.7,1.5c16,2.8,38,6.7,49.3,7.5l0.2,0c2.9,0.4,4.3,0.5,5,0.5c7.3,0.2,35.7-8.6,53-14.6l0.6-0.2l26.9-0.6
					c2.2,0,4,1.7,4,3.8c0,2.2-1.7,4-3.8,4l-25.7,0.6c-6.7,2.3-44.5,15.2-55.2,14.8c-1.2,0-3-0.2-5.6-0.5c-11.7-0.8-33.8-4.8-50-7.6
					c-3.1-0.6-6-1.1-8.6-1.5c-4.1-0.6-6.9-0.9-8.3-1c-5.8-0.2-24.4,1.2-39.4,2.4c-9.4,0.7-17.6,1.4-20.9,1.4c-2,0.1-4.1-0.1-6.1-0.3
					C-265-436.6-267.8-437-270.7-438.6z"/>
			</g>
			<g id="Path_26">
				<path class="st6" d="M-22.2-440.7l-22.2,0.5l-2.1-109.2l22.2-0.5l1.5,44.4"/>
				<path class="st2" d="M-48.2-436.3l-2.2-117l29.9-0.6l1.6,48.3c0.1,2.2-1.6,4-3.8,4c-2.2,0.1-4-1.6-4-3.8l-1.3-40.6l-14.4,0.3
					l1.9,101.3l18.2-0.4c2.2,0,4,1.7,4,3.8c0,2.2-1.7,4-3.8,4L-48.2-436.3z"/>
			</g>
		</g>
	</g>
	<g id="Group_38" transform="matrix(0.998, 0.07, -0.07, 0.998, 10263.891, -251.162)">
		<g id="Path_40" class="st7">
			<path class="st3" d="M5480.8,818.4l-27.5,20.2c0,0-13.6,20.3-31.4,36c-9.1,8-56.4,26.9-64.2,33.3c-31.6,26-62.9,48-62.9,48
				c6.8,5.6,14.5,3.1,21.4-2.1c6.4-4.8,38.7-30.5,45.8-35.2c7.1-4.7,57.9-24.9,70.1-33.8c11.6-9.8,35.7-41.5,35.7-41.5l20.6-14.3
				L5480.8,818.4z"/>
		</g>
		<g id="Path_41">
			<path class="st8" d="M5313.3,936c0,0-5.6-5.2-8.7-4.2c-3.1,1-11.3,6.9-12.1,8.7c-3.7,8.2,5.2,14.1,9.8,15.3s15.2-6.2,16.9-9
				C5320.9,944,5320.2,942.2,5313.3,936z"/>
		</g>
		<g id="Path_42">
			<path class="st9" d="M5319.5,947c1.4-2.2,1.2-3.8-2.4-7.4c-8.7,6.5-15.6,11.5-19.4,14.2c1.5,1,3.1,1.8,4.8,2.2
				C5307.3,957.1,5317.8,949.7,5319.5,947z"/>
		</g>
	</g>
	<g id="Rectangle_10">
		<rect x="15251.4" y="1170.6" class="st10" width="342.1" height="128.5"/>
	</g>
	<g class="st11">
		<path class="st2" d="M15347.7,1271.4l-14.4-85.2h13.1l9.6,65h0.2l9.5-65h12.9l-14.4,85.2H15347.7z"/>
		<path class="st2" d="M15427.7,1206.5v44.5c0,13.4-7.9,21.5-20.8,21.5s-20.8-8.2-20.8-21.5v-44.5c0-13.4,7.9-21.5,20.8-21.5
			S15427.7,1193.1,15427.7,1206.5z M15399,1206.6v44.3c0,6.3,2.8,9.7,7.9,9.7c5.1,0,7.9-3.4,7.9-9.7v-44.3c0-6.3-2.8-9.7-7.9-9.7
			C15401.8,1196.9,15399,1200.3,15399,1206.6z"/>
		<path class="st2" d="M15460.8,1198.4v73h-12.9v-73h-13.8v-12.2h40.4v12.2H15460.8z"/>
		<path class="st2" d="M15495.6,1198.1v24.1h18.9v11.9h-18.9v25.3h23.4v11.9h-36.3v-85.2h36.3v11.9H15495.6z"/>
	</g>
</g>
</svg>
